<svg width="24" height="24" viewBox="0 0 24 24" fill="none" xmlns="http://www.w3.org/2000/svg">
  <path d="M21.9794 10.984L12.7894 20.174C11.6635 21.2998 10.1365 21.9323 8.54435 21.9323C6.95217 21.9323 5.4252 21.2998 4.29935 20.174C3.17351 19.0482 2.54102 17.5212 2.54102 15.929C2.54102 14.3368 3.17351 12.8098 4.29935 11.684L13.4894 2.494C14.2399 1.74344 15.2579 1.32178 16.3194 1.32178C17.3808 1.32178 18.3988 1.74344 19.1494 2.494C19.8999 3.24456 20.3216 4.26255 20.3216 5.324C20.3216 6.38546 19.8999 7.40344 19.1494 8.154L9.94935 17.344C9.57407 17.7193 9.06508 17.9301 8.53435 17.9301C8.00362 17.9301 7.49463 17.7193 7.11935 17.344C6.74407 16.9687 6.53324 16.4597 6.53324 15.929C6.53324 15.3983 6.74407 14.8893 7.11935 14.514L15.6094 6.034" stroke="currentColor" stroke-width="1.5" stroke-linecap="round" stroke-linejoin="round"/>
</svg>
