<svg width="50" height="55" viewBox="0 0 50 55" fill="none" xmlns="http://www.w3.org/2000/svg">
<g clip-path="url(#clip0_39_219)">
<path d="M25.4802 55C22.5316 55 19.595 54.9095 16.6732 54.7289C14.405 54.588 12.0669 54.3006 9.65892 53.8653C8.4475 53.6462 7.55566 52.6059 7.55566 51.3767V3.52685C7.55566 2.27984 8.46286 1.21981 9.69757 1.03085C11.5789 0.742969 13.5805 0.515925 15.7031 0.348239C18.6516 0.115754 21.3931 -0.000488281 23.9279 -0.000488281C27.3421 -0.000488281 30.4844 0.245352 33.3556 0.735549C36.2268 1.22674 38.6962 2.06566 40.7658 3.25331C42.8339 4.44195 44.4516 6.00356 45.6154 7.94011C46.7793 9.87666 47.3609 12.2663 47.3609 15.1056C47.3609 19.3927 45.2914 22.7746 41.1537 25.2533C44.5675 26.5448 46.8957 28.3008 48.1368 30.5208C49.3785 32.7418 49.9993 35.2462 49.9993 38.035C49.9993 43.6646 47.9431 47.8998 43.8307 50.7391C39.7184 53.5799 33.6004 55 25.4802 55Z" fill="#252332"/>
<path d="M20.605 47.3172C31.9848 47.3172 41.2099 38.1073 41.2099 26.7463C41.2099 15.3852 31.9848 6.17529 20.605 6.17529C9.22516 6.17529 0 15.3852 0 26.7463C0 38.1073 9.22516 47.3172 20.605 47.3172Z" fill="url(#paint0_linear_39_219)"/>
<path d="M41.1552 25.254L7.55664 42.6676V10.835L41.1552 25.254Z" fill="white"/>
</g>
<defs>
<linearGradient id="paint0_linear_39_219" x1="0" y1="26.7463" x2="41.2099" y2="26.7463" gradientUnits="userSpaceOnUse">
<stop stop-color="#DC0044"/>
<stop offset="1" stop-color="#E84743"/>
</linearGradient>
<clipPath id="clip0_39_219">
<rect width="50" height="55" fill="white"/>
</clipPath>
</defs>
</svg>
