<?xml version="1.0" encoding="UTF-8"?>
<svg xmlns="http://www.w3.org/2000/svg" version="1.1" viewBox="0 0 34 34">
  <defs>
    <style>
      .cls-1 {
        fill: #252332;
      }
    </style>
  </defs>
  <!-- Generator: Adobe Illustrator 28.7.2, SVG Export Plug-In . SVG Version: 1.2.0 Build 154)  -->
  <g>
    <g id="Calque_1">
      <path class="cls-1" d="M17,1.5c-1.1,0-2,.9-2,2v1.2c-4.6.9-8,5-8,9.8v1.2c0,2.9-1.1,5.8-3,8l-.5.5c-.5.6-.7,1.4-.3,2.1.3.7,1,1.2,1.8,1.2h24c.8,0,1.5-.5,1.8-1.2.3-.7.2-1.6-.3-2.1l-.5-.5c-2-2.2-3-5-3-8v-1.2c0-4.8-3.4-8.9-8-9.8v-1.2c0-1.1-.9-2-2-2ZM19.8,32.3c.8-.8,1.2-1.8,1.2-2.8h-8c0,1.1.4,2.1,1.2,2.8s1.8,1.2,2.8,1.2,2.1-.4,2.8-1.2Z"/>
    </g>
  </g>
</svg>